<?xml version="1.0" standalone="no"?>
<!DOCTYPE svg PUBLIC "-//W3C//DTD SVG 20010904//EN"
 "http://www.w3.org/TR/2001/REC-SVG-20010904/DTD/svg10.dtd">
<svg version="1.0" xmlns="http://www.w3.org/2000/svg"
 width="2723.000000pt" height="2723.000000pt" viewBox="0 0 2723.000000 2723.000000"
 preserveAspectRatio="xMidYMid meet">
<metadata>
Created by potrace 1.11, written by Peter Selinger 2001-2013
</metadata>
<g transform="translate(0.000000,2723.000000) scale(0.100000,-0.100000)"
fill="#000000" stroke="none">
<path d="M13310 27083 c-947 -16 -1975 -193 -2875 -495 -1714 -574 -3203
-1585 -4346 -2948 -1152 -1374 -1885 -3083 -2089 -4871 -51 -444 -55 -550 -53
-1314 3 -721 11 -1002 38 -1320 109 -1256 470 -2565 1088 -3950 711 -1592
1766 -3310 3410 -5554 448 -612 869 -1170 1917 -2546 306 -401 655 -860 775
-1020 384 -509 802 -995 1491 -1736 120 -129 336 -361 479 -515 286 -307 374
-406 427 -476 l35 -46 1003 1185 c552 652 1050 1246 1107 1320 505 657 1256
1649 1593 2103 1110 1496 1928 2679 2668 3859 1900 3030 2958 5639 3226 7951
53 454 61 609 61 1155 0 545 -8 687 -61 1105 -195 1550 -823 2966 -1875 4230
-112 134 -186 219 -369 420 -53 58 -145 161 -206 230 -222 253 -555 587 -824
824 -1233 1089 -2718 1835 -4355 2190 -722 156 -1502 232 -2265 219z m462
-5123 c1479 -82 2815 -850 3645 -2095 465 -697 734 -1481 804 -2340 15 -190 6
-717 -15 -895 -53 -427 -140 -796 -276 -1165 -424 -1153 -1274 -2100 -2365
-2635 -473 -231 -926 -368 -1465 -441 -199 -26 -709 -38 -923 -20 -1525 128
-2857 958 -3653 2277 -392 649 -626 1390 -685 2164 -15 198 -6 687 15 870 92
783 332 1470 735 2104 351 552 842 1052 1386 1411 680 449 1477 716 2280 764
191 12 319 12 517 1z"/>
</g>
</svg>
